<?xml version="1.0" encoding="UTF-8" standalone="no"?>
<!-- Generator: Adobe Illustrator 14.0.0, SVG Export Plug-In . SVG Version: 6.00 Build 43363)  -->

<svg
   xmlns:dc="http://purl.org/dc/elements/1.1/"
   xmlns:cc="http://creativecommons.org/ns#"
   xmlns:rdf="http://www.w3.org/1999/02/22-rdf-syntax-ns#"
   xmlns:svg="http://www.w3.org/2000/svg"
   xmlns="http://www.w3.org/2000/svg"
   xmlns:sodipodi="http://sodipodi.sourceforge.net/DTD/sodipodi-0.dtd"
   xmlns:inkscape="http://www.inkscape.org/namespaces/inkscape"
   version="1.1"
   id="Layer_1"
   x="0px"
   y="0px"
   width="32px"
   height="32px"
   viewBox="0 0 32 32"
   style="enable-background:new 0 0 32 32;"
   xml:space="preserve"
   inkscape:version="0.47 r22583"
   sodipodi:docname="clockred.svg"><metadata
     id="metadata9"><rdf:RDF><cc:Work
         rdf:about=""><dc:format>image/svg+xml</dc:format><dc:type
           rdf:resource="http://purl.org/dc/dcmitype/StillImage" /><dc:title /></cc:Work></rdf:RDF></metadata><defs
     id="defs7"><inkscape:perspective
       sodipodi:type="inkscape:persp3d"
       inkscape:vp_x="0 : 16 : 1"
       inkscape:vp_y="0 : 1000 : 0"
       inkscape:vp_z="32 : 16 : 1"
       inkscape:persp3d-origin="16 : 10.666667 : 1"
       id="perspective7" /></defs><sodipodi:namedview
     pagecolor="#ffffff"
     bordercolor="#666666"
     borderopacity="1"
     objecttolerance="10"
     gridtolerance="10"
     guidetolerance="10"
     inkscape:pageopacity="0"
     inkscape:pageshadow="2"
     inkscape:window-width="1603"
     inkscape:window-height="991"
     id="namedview5"
     showgrid="false"
     inkscape:zoom="20.85965"
     inkscape:cx="-1.8555667"
     inkscape:cy="10.615844"
     inkscape:window-x="65"
     inkscape:window-y="42"
     inkscape:window-maximized="0"
     inkscape:current-layer="Layer_1" /><path
     d="m 16,11.220339 c -0.898169,0 -1.627118,0.713762 -1.627118,1.59322 v 4.142373 l -1.145492,1.120831 c -0.40678,0.398305 -0.481628,0.773508 -0.481628,1.109678 0,0.879458 0.72895,1.59322 1.62712,1.59322 0.470236,0 0.846101,-0.191983 1.132474,-0.471593 l 1.684882,-1.648983 c 0.241626,-0.236594 0.43688,-0.605424 0.43688,-1.065865 v -4.779661 c 0,-0.879458 -0.728949,-1.59322 -1.627118,-1.59322 z m 0,-4.779661 c -6.2904408,0 -11.3898305,4.993152 -11.3898305,11.152542 0,2.510119 0.8574915,4.819491 2.2869153,6.68356 l -1.8142373,1.77644 c -0.3156611,0.307491 -0.472678,0.676322 -0.472678,1.099322 0,0.946373 0.8265762,1.593221 1.6271187,1.593221 0.4197966,0 0.8021695,-0.148169 1.1227118,-0.462034 l 1.8142372,-1.77644 C 11.077966,27.906135 13.436474,28.745763 16,28.745763 c 2.563526,0 4.922034,-0.839628 6.825762,-2.239272 L 24.64,28.282932 c 0.320543,0.314662 0.702915,0.462831 1.122712,0.462831 0.800542,0 1.627119,-0.647644 1.627119,-1.593221 0,-0.423 -0.157018,-0.791831 -0.471865,-1.099322 l -1.814237,-1.77644 c 1.42861,-1.864069 2.286102,-4.173441 2.286102,-6.68356 C 27.389831,11.43383 22.290441,6.440678 16,6.440678 z m 0,19.118644 c -4.492474,0 -8.1355933,-3.567221 -8.1355933,-7.966102 0,-4.398881 3.6431193,-7.9661013 8.1355933,-7.9661013 4.492474,0 8.135593,3.5672203 8.135593,7.9661013 0,4.398881 -3.643119,7.966102 -8.135593,7.966102 z M 24.135593,3.2542373 c -1.732881,0 -3.250983,0.8866271 -4.117424,2.2193559 3.199729,1.0156779 5.856814,3.2063559 7.435119,6.0590168 0.96,-0.872288 1.563661,-2.1157965 1.563661,-3.4987117 0,-2.6391694 -2.186034,-4.779661 -4.881356,-4.779661 z M 11.981831,5.4735932 C 11.11539,4.1408644 9.5972877,3.2542373 7.8644067,3.2542373 c -2.6953219,0 -4.8813559,2.1404916 -4.8813559,4.779661 0,1.3829152 0.603661,2.6264237 1.563661,3.4995077 C 6.1242034,8.6807458 8.7821017,6.4900678 11.981831,5.4735932 z"
     id="path3"
     inkscape:connector-curvature="0"
     style="fill:#df382c;fill-opacity:1;stroke:#df382c;stroke-opacity:1;stroke-linejoin:miter;stroke-linecap:round;stroke-width:0.50000000000000000;stroke-miterlimit:4;stroke-dasharray:none" /></svg>