<?xml version="1.0" encoding="UTF-8" standalone="no"?>
<!-- Generator: Adobe Illustrator 16.0.0, SVG Export Plug-In . SVG Version: 6.00 Build 0)  -->

<svg
   xmlns:dc="http://purl.org/dc/elements/1.1/"
   xmlns:cc="http://creativecommons.org/ns#"
   xmlns:rdf="http://www.w3.org/1999/02/22-rdf-syntax-ns#"
   xmlns:svg="http://www.w3.org/2000/svg"
   xmlns="http://www.w3.org/2000/svg"
   xmlns:sodipodi="http://sodipodi.sourceforge.net/DTD/sodipodi-0.dtd"
   xmlns:inkscape="http://www.inkscape.org/namespaces/inkscape"
   version="1.1"
   id="Layer_1"
   x="0px"
   y="0px"
   width="500px"
   height="500px"
   viewBox="0 0 500 500"
   enable-background="new 0 0 500 500"
   xml:space="preserve"
   inkscape:version="0.48.4 r9939"
   sodipodi:docname="alarm.svg"><metadata
     id="metadata9"><rdf:RDF><cc:Work
         rdf:about=""><dc:format>image/svg+xml</dc:format><dc:type
           rdf:resource="http://purl.org/dc/dcmitype/StillImage" /></cc:Work></rdf:RDF></metadata><defs
     id="defs7" /><sodipodi:namedview
     pagecolor="#ffffff"
     bordercolor="#666666"
     borderopacity="1"
     objecttolerance="10"
     gridtolerance="10"
     guidetolerance="10"
     inkscape:pageopacity="0"
     inkscape:pageshadow="2"
     inkscape:window-width="915"
     inkscape:window-height="681"
     id="namedview5"
     showgrid="false"
     inkscape:zoom="0.472"
     inkscape:cx="-215.04237"
     inkscape:cy="250"
     inkscape:window-x="721"
     inkscape:window-y="208"
     inkscape:window-maximized="0"
     inkscape:current-layer="Layer_1" /><path
     clip-rule="evenodd"
     d="m 244.64555,138.85856 c -22.97394,22.9748 -17.61936,52.85211 -25.30525,81.95801 L 90.504105,90.736558 c -2.796887,-2.955782 -6.833323,-4.812969 -11.256744,-4.812969 -8.53845,0 -15.522125,6.905081 -15.522125,15.522121 v 5.27599 c 0,46.80386 20.180471,133.42278 83.204394,202.80762 l -74.199511,74.12775 c -12.033277,12.02132 -12.033277,31.5833 0,43.6123 12.028151,12.03841 31.588421,12.03841 43.540541,0 l 73.96459,-74.04403 44.24361,44.24275 38.18425,-34.6937 64.50267,64.49498 c 11.94529,12.03841 31.50812,12.03841 43.53542,0 12.0384,-12.029 12.0384,-31.59013 0,-43.6123 L 278.63618,280.73437 c 29.42284,-8.07202 59.53081,-2.40222 82.50988,-25.3847 l 69.38483,-69.38313 c 7.6876,-7.61071 7.6876,-20.02499 0,-27.70404 -7.68588,-7.69187 -20.09931,-7.69187 -27.71088,0 l -61.07447,61.00101 c -4.5789,4.57719 -12.03841,4.57719 -16.61389,0 -4.65407,-4.57719 -4.65407,-12.02815 0,-16.60534 l 61.00614,-61.08388 c 7.6799,-7.61071 7.6799,-20.02499 0,-27.71088 -7.68418,-7.6782 -20.10103,-7.6782 -27.70319,0 l -61.09071,61.00785 c -4.5789,4.65407 -12.02815,4.65407 -16.60791,0 -4.57548,-4.57719 -4.57548,-12.0367 0,-16.60791 l 61.00956,-61.083872 c 7.68332,-7.609002 7.68332,-20.025847 0,-27.710879 -7.68674,-7.685032 -20.09932,-7.685032 -27.71174,0 l -69.38825,69.389961 z"
     id="path3"
     inkscape:connector-curvature="0"
     style="fill:#3c3c3c;fill-rule:evenodd;fill-opacity:1" /></svg>